<?xml version="1.0" encoding="utf-8"?>
<svg xmlns="http://www.w3.org/2000/svg">
  <symbol id="icon-movie" fill="none" viewBox="0 0 32 26">
    <path
      d="M25.6 0L28.8 6.4H24L20.8 0H17.6L20.8 6.4H16L12.8 0H9.6L12.8 6.4H8L4.8 0H3.2C1.432 0 0.016 1.432 0.016 3.2L0 22.4C0 24.168 1.432 25.6 3.2 25.6H28.8C30.568 25.6 32 24.168 32 22.4V0H25.6Z"
      fill="#FC4747"/>
  </symbol>
  <symbol id="icon-bookmark" fill="none" viewBox="0 0 12 14">
    <path
      d="M10.7112 0.771005L10.7215 0.775484L10.7319 0.779653C10.7992 0.806575 10.8386 0.840492 10.8705 0.886923C10.9032 0.934576 10.9167 0.977859 10.9167 1.03635V12.9636C10.9167 13.0221 10.9032 13.0654 10.8705 13.1131C10.8386 13.1595 10.7992 13.1934 10.7319 13.2203L10.7237 13.2236L10.7156 13.2271C10.7107 13.2292 10.6807 13.2407 10.6094 13.2407C10.5085 13.2407 10.4397 13.2142 10.3686 13.15L6.3572 9.2346L5.83333 8.72327L5.30946 9.2346L1.29754 13.1505C1.21287 13.2276 1.14206 13.25 1.05729 13.25C1.02004 13.25 0.988249 13.2433 0.955471 13.229L0.945175 13.2245L0.934749 13.2203C0.867434 13.1934 0.828051 13.1595 0.796199 13.1131C0.763509 13.0654 0.75 13.0221 0.75 12.9636V1.03635C0.75 0.977859 0.763509 0.934576 0.796198 0.886924C0.828051 0.840491 0.867435 0.806574 0.93475 0.779653L0.945175 0.775484L0.95547 0.771004C0.988248 0.756743 1.02004 0.75 1.05729 0.75H10.6094C10.6466 0.75 10.6784 0.756743 10.7112 0.771005Z"
      stroke="currentColor" stroke-width="1.5"/>
  </symbol>
  <symbol id="icon-bookmark-fill" fill="none" viewBox="0 0 12 14">
    <path
      d="M10.6094 0C10.7491 0 10.8828 0.0277594 11.0104 0.0832783C11.2109 0.163472 11.3704 0.289932 11.4889 0.462657C11.6074 0.635382 11.6667 0.826614 11.6667 1.03635V12.9636C11.6667 13.1734 11.6074 13.3646 11.4889 13.5373C11.3704 13.7101 11.2109 13.8365 11.0104 13.9167C10.895 13.9661 10.7613 13.9907 10.6094 13.9907C10.3177 13.9907 10.0655 13.892 9.85286 13.6946L5.83333 9.77132L1.8138 13.6946C1.59505 13.8982 1.34288 14 1.05729 14C0.917535 14 0.783854 13.9722 0.65625 13.9167C0.455729 13.8365 0.296224 13.7101 0.177734 13.5373C0.0592448 13.3646 0 13.1734 0 12.9636V1.03635C0 0.826614 0.0592448 0.635382 0.177734 0.462657C0.296224 0.289932 0.455729 0.163472 0.65625 0.0832783C0.783854 0.0277594 0.917535 0 1.05729 0H10.6094Z"
      fill="white"/>
  </symbol>
  <symbol id="icon-play" fill="none" viewBox="0 0 30 30">
    <path fill-rule="evenodd" clip-rule="evenodd"
          d="M0 15C0 6.7125 6.7125 0 15 0C23.2875 0 30 6.7125 30 15C30 23.2875 23.2875 30 15 30C6.7125 30 0 23.2875 0 15ZM21 14.5L12 8V21L21 14.5Z"
          fill="white"/>
  </symbol>
  <symbol id="icon-search" fill="none" viewBox="0 0 32 32">
    <path fill-rule="evenodd" clip-rule="evenodd"
          d="M23.08 21.2L27.6133 25.72C27.8657 25.9704 28.0077 26.3111 28.0077 26.6667C28.0077 27.0222 27.8657 27.363 27.6133 27.6133C27.363 27.8657 27.0222 28.0077 26.6667 28.0077C26.3111 28.0077 25.9704 27.8657 25.72 27.6133L21.2 23.08C19.3366 24.5426 17.0355 25.3363 14.6667 25.3333C8.77563 25.3333 4 20.5577 4 14.6667C4 8.77563 8.77563 4 14.6667 4C20.5577 4 25.3333 8.77563 25.3333 14.6667C25.3363 17.0355 24.5426 19.3366 23.08 21.2ZM14.6667 6.66667C10.2484 6.66667 6.66667 10.2484 6.66667 14.6667C6.66667 19.0849 10.2484 22.6667 14.6667 22.6667C19.0849 22.6667 22.6667 19.0849 22.6667 14.6667C22.6667 10.2484 19.0849 6.66667 14.6667 6.66667Z"
          fill="white"/>
  </symbol>
</svg>

