<?xml version="1.0" encoding="utf-8"?>
<svg xmlns="http://www.w3.org/2000/svg">
  <symbol id="icon-movie" fill="none" viewBox="0 0 32 26">
    <path
      d="M25.6 0L28.8 6.4H24L20.8 0H17.6L20.8 6.4H16L12.8 0H9.6L12.8 6.4H8L4.8 0H3.2C1.432 0 0.016 1.432 0.016 3.2L0 22.4C0 24.168 1.432 25.6 3.2 25.6H28.8C30.568 25.6 32 24.168 32 22.4V0H25.6Z"
      fill="#FC4747"/>
  </symbol>
  <symbol id="icon-bookmark" fill="none" viewBox="0 0 12 14">
    <path
      d="M10.7112 0.771005L10.7215 0.775484L10.7319 0.779653C10.7992 0.806575 10.8386 0.840492 10.8705 0.886923C10.9032 0.934576 10.9167 0.977859 10.9167 1.03635V12.9636C10.9167 13.0221 10.9032 13.0654 10.8705 13.1131C10.8386 13.1595 10.7992 13.1934 10.7319 13.2203L10.7237 13.2236L10.7156 13.2271C10.7107 13.2292 10.6807 13.2407 10.6094 13.2407C10.5085 13.2407 10.4397 13.2142 10.3686 13.15L6.3572 9.2346L5.83333 8.72327L5.30946 9.2346L1.29754 13.1505C1.21287 13.2276 1.14206 13.25 1.05729 13.25C1.02004 13.25 0.988249 13.2433 0.955471 13.229L0.945175 13.2245L0.934749 13.2203C0.867434 13.1934 0.828051 13.1595 0.796199 13.1131C0.763509 13.0654 0.75 13.0221 0.75 12.9636V1.03635C0.75 0.977859 0.763509 0.934576 0.796198 0.886924C0.828051 0.840491 0.867435 0.806574 0.93475 0.779653L0.945175 0.775484L0.95547 0.771004C0.988248 0.756743 1.02004 0.75 1.05729 0.75H10.6094C10.6466 0.75 10.6784 0.756743 10.7112 0.771005Z"
      stroke="currentColor" stroke-width="1.5"/>
  </symbol>
  <symbol id="icon-bookmark-fill" fill="none" viewBox="0 0 12 14">
    <path
      d="M10.6094 0C10.7491 0 10.8828 0.0277594 11.0104 0.0832783C11.2109 0.163472 11.3704 0.289932 11.4889 0.462657C11.6074 0.635382 11.6667 0.826614 11.6667 1.03635V12.9636C11.6667 13.1734 11.6074 13.3646 11.4889 13.5373C11.3704 13.7101 11.2109 13.8365 11.0104 13.9167C10.895 13.9661 10.7613 13.9907 10.6094 13.9907C10.3177 13.9907 10.0655 13.892 9.85286 13.6946L5.83333 9.77132L1.8138 13.6946C1.59505 13.8982 1.34288 14 1.05729 14C0.917535 14 0.783854 13.9722 0.65625 13.9167C0.455729 13.8365 0.296224 13.7101 0.177734 13.5373C0.0592448 13.3646 0 13.1734 0 12.9636V1.03635C0 0.826614 0.0592448 0.635382 0.177734 0.462657C0.296224 0.289932 0.455729 0.163472 0.65625 0.0832783C0.783854 0.0277594 0.917535 0 1.05729 0H10.6094Z"
      fill="white"/>
  </symbol>
  <symbol id="icon-play" fill="none" viewBox="0 0 30 30">
    <path fill-rule="evenodd" clip-rule="evenodd"
          d="M0 15C0 6.7125 6.7125 0 15 0C23.2875 0 30 6.7125 30 15C30 23.2875 23.2875 30 15 30C6.7125 30 0 23.2875 0 15ZM21 14.5L12 8V21L21 14.5Z"
          fill="white"/>
  </symbol>
  <symbol id="icon-search" fill="none" viewBox="0 0 32 32">
    <path fill-rule="evenodd" clip-rule="evenodd"
          d="M23.08 21.2L27.6133 25.72C27.8657 25.9704 28.0077 26.3111 28.0077 26.6667C28.0077 27.0222 27.8657 27.363 27.6133 27.6133C27.363 27.8657 27.0222 28.0077 26.6667 28.0077C26.3111 28.0077 25.9704 27.8657 25.72 27.6133L21.2 23.08C19.3366 24.5426 17.0355 25.3363 14.6667 25.3333C8.77563 25.3333 4 20.5577 4 14.6667C4 8.77563 8.77563 4 14.6667 4C20.5577 4 25.3333 8.77563 25.3333 14.6667C25.3363 17.0355 24.5426 19.3366 23.08 21.2ZM14.6667 6.66667C10.2484 6.66667 6.66667 10.2484 6.66667 14.6667C6.66667 19.0849 10.2484 22.6667 14.6667 22.6667C19.0849 22.6667 22.6667 19.0849 22.6667 14.6667C22.6667 10.2484 19.0849 6.66667 14.6667 6.66667Z"
          fill="white"/>
  </symbol>
  <symbol id="icon-home" fill="none" viewBox="0 0 20 20">
    <path fill-rule="evenodd" clip-rule="evenodd"
          d="M1 0H8C8.6 0 9 0.4 9 1V8C9 8.6 8.6 9 8 9H1C0.4 9 0 8.6 0 8V1C0 0.4 0.4 0 1 0ZM1 11H8C8.6 11 9 11.4 9 12V19C9 19.6 8.6 20 8 20H1C0.4 20 0 19.6 0 19V12C0 11.4 0.4 11 1 11ZM19 0H12C11.4 0 11 0.4 11 1V8C11 8.6 11.4 9 12 9H19C19.6 9 20 8.6 20 8V1C20 0.4 19.6 0 19 0ZM12 11H19C19.6 11 20 11.4 20 12V19C20 19.6 19.6 20 19 20H12C11.4 20 11 19.6 11 19V12C11 11.4 11.4 11 12 11Z"
          fill="currentColor"/>
  </symbol>
  <symbol id="icon-movies" fill="none" viewBox="0 0 20 20">
    <path fill-rule="evenodd" clip-rule="evenodd"
          d="M16.9556 0H3.04444C1.36304 0 0 1.36304 0 3.04444V16.9556C0 18.637 1.36304 20 3.04444 20H16.9556C17.763 20 18.5374 19.6792 19.1083 19.1083C19.6792 18.5374 20 17.763 20 16.9556V3.04444C20 2.23701 19.6792 1.46264 19.1083 0.891697C18.5374 0.320753 17.763 0 16.9556 0ZM4 9H2V7H4V9ZM4 11H2V13H4V11ZM18 9H16V7H18V9ZM18 11H16V13H18V11ZM18 2.74V4H16V2H17.26C17.4563 2 17.6445 2.07796 17.7833 2.21674C17.922 2.35552 18 2.54374 18 2.74ZM4 2H2.74C2.54374 2 2.35552 2.07796 2.21674 2.21674C2.07796 2.35552 2 2.54374 2 2.74V4H4V2ZM2 17.26V16H4V18H2.74C2.54374 18 2.35552 17.922 2.21674 17.7833C2.07796 17.6445 2 17.4563 2 17.26ZM17.26 18C17.6687 18 18 17.6687 18 17.26V16H16V18H17.26Z"
          fill="currentColor"/>
  </symbol>
  <symbol id="icon-tv" fill="none" viewBox="0 0 20 20">
    <path fill-rule="evenodd" clip-rule="evenodd"
          d="M9.08 4.48109H20V20H0V4.48109H4.92L2.22 1.20272L3.78 0.029098L7 3.90883L10.22 0L11.78 1.20272L9.08 4.48109ZM2 6.42095V18.0601H12V6.42095H2ZM17 14.1804H15V12.2405H17V14.1804ZM15 10.3007H17V8.36082H15V10.3007Z"
          fill="currentColor"/>
  </symbol>
  <symbol id="icon-bookmark-menu" fill="none" viewBox="0 0 17 20">
    <path
      d="M15.3866 0C15.5893 0 15.7832 0.0396563 15.9683 0.118969C16.2591 0.233532 16.4904 0.414188 16.6623 0.660939C16.8341 0.907689 16.92 1.18088 16.92 1.4805V18.5195C16.92 18.8191 16.8341 19.0923 16.6623 19.3391C16.4904 19.5858 16.2591 19.7665 15.9683 19.881C15.8008 19.9515 15.607 19.9868 15.3866 19.9868C14.9636 19.9868 14.5979 19.8458 14.2895 19.5638L8.46001 13.959L2.63054 19.5638C2.31328 19.8546 1.94757 20 1.53338 20C1.33069 20 1.13681 19.9603 0.951751 19.881C0.660939 19.7665 0.42961 19.5858 0.257766 19.3391C0.085922 19.0923 0 18.8191 0 18.5195V1.4805C0 1.18088 0.085922 0.907689 0.257766 0.660939C0.42961 0.414188 0.660939 0.233532 0.951751 0.118969C1.13681 0.0396563 1.33069 0 1.53338 0H15.3866Z"
      fill="currentColor"/>
  </symbol>
</svg>







